<?xml version="1.0" encoding="UTF-8" standalone="no"?>
<!-- Created with Inkscape (http://www.inkscape.org/) -->

<svg
   xmlns:dc="http://purl.org/dc/elements/1.1/"
   xmlns:cc="http://creativecommons.org/ns#"
   xmlns:rdf="http://www.w3.org/1999/02/22-rdf-syntax-ns#"
   xmlns:svg="http://www.w3.org/2000/svg"
   xmlns="http://www.w3.org/2000/svg"
   xmlns:sodipodi="http://sodipodi.sourceforge.net/DTD/sodipodi-0.dtd"
   xmlns:inkscape="http://www.inkscape.org/namespaces/inkscape"
   width="210mm"
   height="297mm"
   viewBox="0 0 744.09448819 1052.3622047"
   id="svg2"
   version="1.1"
   inkscape:version="0.91 r13725"
   sodipodi:docname="plateform001.svg">
  <defs
     id="defs4" />
  <sodipodi:namedview
     id="base"
     pagecolor="#ffffff"
     bordercolor="#666666"
     borderopacity="1.0"
     inkscape:pageopacity="0.0"
     inkscape:pageshadow="2"
     inkscape:zoom="0.35"
     inkscape:cx="-146.42857"
     inkscape:cy="520"
     inkscape:document-units="px"
     inkscape:current-layer="layer1"
     showgrid="false"
     inkscape:window-width="1536"
     inkscape:window-height="801"
     inkscape:window-x="-8"
     inkscape:window-y="-8"
     inkscape:window-maximized="1" />
  <metadata
     id="metadata7">
    <rdf:RDF>
      <cc:Work
         rdf:about="">
        <dc:format>image/svg+xml</dc:format>
        <dc:type
           rdf:resource="http://purl.org/dc/dcmitype/StillImage" />
        <dc:title></dc:title>
      </cc:Work>
    </rdf:RDF>
  </metadata>
  <g
     inkscape:label="Calque 1"
     inkscape:groupmode="layer"
     id="layer1">
    <path
       style="fill:#666666;fill-opacity:1;fill-rule:evenodd;stroke:none;stroke-width:1px;stroke-linecap:butt;stroke-linejoin:miter;stroke-opacity:1"
       d="m -640,232.36221 c 28.57143,5.71428 448.57143,31.42857 522.85714,62.85714 74.285713,31.42857 528.57143,91.42857 528.57143,91.42857 0,0 51.42857,80 22.85714,111.42857 -28.57143,31.42858 -140,51.42858 -282.85714,62.85715 -142.8571411,11.42857 -377.14286,-74.28572 -408.57143,-74.28572 -31.42857,0 65.71429,-177.14285 -91.42857,-77.14285 -157.14286,100 -151.42857,122.85714 -274.28572,131.42857 -122.85714,8.57143 -214.28571,-65.71429 -280.00001,-114.28572 -65.7143,-48.57143 -74.2857,-80 -62.8571,-88.57143 11.4285,-8.57142 105.71426,0 22.8571,-17.14285 -82.85714,-17.14286 -202.85714,-68.57143 -294.28574,-34.28572 -91.4286,34.28572 -34.2857,-134.28571 42.8571,-180 77.1429,-45.714286 77.1429,-222.85714 191.4286,-74.285715 C -888.57143,180.93364 -888.57143,180.93364 -857.14286,206.64792 -825.71429,232.36221 -640,232.36221 -640,232.36221 Z"
       id="path4136"
       inkscape:connector-curvature="0" />
  </g>
</svg>
